<?xml version="1.0" encoding="utf-8"?>
<!-- Generator: Adobe Illustrator 26.3.1, SVG Export Plug-In . SVG Version: 6.00 Build 0)  -->
<svg version="1.1" id="Layer_1" xmlns="http://www.w3.org/2000/svg" xmlns:xlink="http://www.w3.org/1999/xlink" x="0px" y="0px"
	 viewBox="0 0 1200 1200" style="enable-background:new 0 0 1200 1200;" xml:space="preserve">
<style type="text/css">
	.st0{fill:#FFFFFF;}
</style>
<g>
	<g>
		<g>
			<g>
				<polygon class="st0" points="439.9,1034 128.4,1034 128.4,718.9 171.3,685.7 171.3,991.1 439.9,991.1 				"/>
			</g>
			<g>
				<polygon class="st0" points="760.1,1034 1071.6,1034 1071.6,718.9 1028.7,685.7 1028.7,991.1 760.1,991.1 				"/>
			</g>
		</g>
		<g>
			<g>
				<polygon class="st0" points="439.9,166 128.4,166 128.4,481.1 171.3,514.3 171.3,208.9 439.9,208.9 				"/>
			</g>
			<g>
				<path class="st0" d="M760.1,166h311.5v315.1l-42.9,33.3V222.2c0-7.4-6-13.4-13.4-13.4H760.1V166z"/>
			</g>
		</g>
	</g>
	<g>
		<polygon class="st0" points="361.3,369.5 296.1,369.5 296.1,434.7 		"/>
		<g>
			<polygon class="st0" points="838.7,824.8 903.9,824.8 903.9,759.6 			"/>
			<polygon class="st0" points="895.9,511.9 895.9,369.5 494.2,369.5 299,564.6 299,667.8 658.5,667.8 638.2,688.1 299,688.1 
				299,830.5 699.3,830.5 895.9,634 895.9,532.2 537.7,532.2 558.1,511.9 			"/>
			<polygon class="st0" points="354.8,369.5 296.1,369.5 296.1,428.2 			"/>
		</g>
	</g>
</g>
</svg>
